<svg xmlns="http://www.w3.org/2000/svg" viewBox="0 0 64 64" role="img" aria-label="Cytria"><style>:root{--primary:#080D11}@media(prefers-color-scheme:dark){:root{--primary:#FFFFFF}}</style><g transform="translate(-135.55489711934155 -41.38666666666667) scale(0.22650205761316872)"><path fill="var(--primary)" fill-rule="evenodd" d="M778.5 207 C767 203.8 755.5 202.5 744 202.5 C676.35 202.5 621.5 256.9 621.5 324 C621.5 391.1 676.35 445.5 744 445.5 C794.5 445.5 837.9 414.8 856.5 371 L803 371 C789 388.2 768.1 398 744 398 C702.86 398 669.5 364.86 669.5 324 C669.5 283.14 702.86 250 744 250 L745 250 Z"/><path fill="#C9A24D" fill-rule="evenodd" d="M790 210.5 C821.5 223.5 846.3 249 858 281.5 L806 281.5 C795.2 266.5 778.8 255.2 759.5 251 Z"/></g></svg>